<svg width="96" height="96" xmlns="http://www.w3.org/2000/svg" xmlns:xlink="http://www.w3.org/1999/xlink" overflow="hidden"><defs><clipPath id="clip0"><rect x="335" y="195" width="96" height="96"/></clipPath></defs><g clip-path="url(#clip0)" transform="translate(-335 -195)"><path d="M399.3 264.1C397.8 262.6 396.9 260.5 396.9 258.4L396.3 257.8C387.2 263.4 375.6 262.8 367.1 256.3L366.8 256.5C365.7 257.3 365 258.6 365 260L365 269 401 269 401 265.8 399.3 264.1Z" fill="#FFFFFF"/><path d="M408.5 234.5C413.4 233.7 416.7 229 415.9 224.1 415.1 219.2 410.4 215.9 405.5 216.7 404.1 216.9 402.8 217.5 401.7 218.3 405.8 222.7 408.2 228.4 408.5 234.5Z" fill="#FFFFFF"/><path d="M423.2 242.4C420.6 240.4 417.6 238.9 414.4 238.2 412.5 237.6 410.5 237.3 408.5 237.1 408.3 241.4 407 245.6 404.7 249.3L405.3 249.9C407.4 249.9 409.5 250.8 411 252.3L413.7 255 425 255 425 246C425 244.6 424.4 243.2 423.2 242.4Z" fill="#FFFFFF"/><path d="M418.4 263.9 409 254.4C407.7 253.2 406 252.6 404.2 253L400.8 249.7C403.9 245.7 405.5 240.9 405.5 235.9 405.6 223.3 395.4 213 382.7 212.9 370 212.8 359.9 223 359.9 235.6 359.9 248.2 370 258.5 382.7 258.6 387.7 258.6 392.6 257 396.7 253.9L400.1 257.2C399.8 258.9 400.3 260.7 401.5 262L411 271.5C413 273.6 416.4 273.7 418.5 271.7 420.6 269.7 420.7 266.3 418.7 264.2 418.6 264.1 418.5 264 418.4 263.9L418.4 263.9ZM382.8 217.6C392.9 217.6 401 225.7 401 235.8 401 240.1 399.5 244.3 396.7 247.5 394.8 246.6 392.9 245.9 390.9 245.4 388.2 244.6 385.4 244.1 382.6 244.1 379.8 244.1 377 244.6 374.3 245.4 372.4 245.9 370.6 246.6 368.9 247.6 362.4 240 363.3 228.5 370.9 222 374.2 219.1 378.4 217.6 382.8 217.6Z" fill="#FFFFFF"/><path d="M392.7 231.8C392.7 237.378 388.178 241.9 382.6 241.9 377.022 241.9 372.5 237.378 372.5 231.8 372.5 226.222 377.022 221.7 382.6 221.7 388.178 221.7 392.7 226.222 392.7 231.8Z" fill="#FFFFFF"/><path d="M357 237.1C355.2 237.3 353.4 237.6 351.6 238.2 348.5 239.1 345.5 240.6 342.8 242.4 341.6 243.2 341 244.6 341 246L341 255 362.6 255C363 254.4 363.5 253.9 364.1 253.5 359.8 249 357.3 243.2 357 237.1Z" fill="#FFFFFF"/><path d="M357 234.4C357.3 228.3 359.8 222.6 364 218.1 359.9 215.3 354.3 216.4 351.5 220.6 348.7 224.8 349.8 230.3 354 233.1 354.9 233.7 355.9 234.1 357 234.4Z" fill="#FFFFFF"/></g></svg>