<svg width="96" height="96" xmlns="http://www.w3.org/2000/svg" xmlns:xlink="http://www.w3.org/1999/xlink" overflow="hidden"><defs><clipPath id="clip0"><rect x="592" y="312" width="96" height="96"/></clipPath></defs><g clip-path="url(#clip0)" transform="translate(-592 -312)"><path d="M656.3 381.1C654.8 379.6 653.9 377.5 653.9 375.4L653.3 374.8C644.2 380.4 632.6 379.8 624.1 373.3L623.8 373.5C622.7 374.3 622 375.6 622 377L622 386 658 386 658 382.8 656.3 381.1Z" fill="#002060"/><path d="M665.5 351.5C670.4 350.7 673.7 346 672.9 341.1 672.1 336.2 667.4 332.9 662.5 333.7 661.1 333.9 659.8 334.5 658.7 335.3 662.8 339.7 665.2 345.4 665.5 351.5Z" fill="#002060"/><path d="M680.2 359.4C677.6 357.4 674.6 355.9 671.4 355.2 669.5 354.6 667.5 354.3 665.5 354.1 665.3 358.4 664 362.6 661.7 366.3L662.3 366.9C664.4 366.9 666.5 367.8 668 369.3L670.7 372 682 372 682 363C682 361.6 681.4 360.2 680.2 359.4Z" fill="#002060"/><path d="M675.4 380.9 666 371.4C664.7 370.2 663 369.6 661.2 370L657.8 366.7C660.9 362.7 662.5 357.9 662.5 352.9 662.6 340.3 652.4 330 639.7 329.9 627 329.8 616.9 340 616.9 352.6 616.9 365.2 627 375.5 639.7 375.6 644.7 375.6 649.6 374 653.7 370.9L657.1 374.2C656.8 375.9 657.3 377.7 658.5 379L668 388.5C670 390.6 673.4 390.7 675.5 388.7 677.6 386.7 677.7 383.3 675.7 381.2 675.6 381.1 675.5 381 675.4 380.9L675.4 380.9ZM639.8 334.6C649.9 334.6 658 342.7 658 352.8 658 357.1 656.5 361.3 653.7 364.5 651.8 363.6 649.9 362.9 647.9 362.4 645.2 361.6 642.4 361.1 639.6 361.1 636.8 361.1 634 361.6 631.3 362.4 629.4 362.9 627.6 363.6 625.9 364.6 619.4 357 620.3 345.5 627.9 339 631.2 336.1 635.4 334.6 639.8 334.6Z" fill="#002060"/><path d="M649.7 348.8C649.7 354.378 645.178 358.9 639.6 358.9 634.022 358.9 629.5 354.378 629.5 348.8 629.5 343.222 634.022 338.7 639.6 338.7 645.178 338.7 649.7 343.222 649.7 348.8Z" fill="#002060"/><path d="M614 354.1C612.2 354.3 610.4 354.6 608.6 355.2 605.5 356.1 602.5 357.6 599.8 359.4 598.6 360.2 598 361.6 598 363L598 372 619.6 372C620 371.4 620.5 370.9 621.1 370.5 616.8 366 614.3 360.2 614 354.1Z" fill="#002060"/><path d="M614 351.4C614.3 345.3 616.8 339.6 621 335.1 616.9 332.3 611.3 333.4 608.5 337.6 605.7 341.8 606.8 347.3 611 350.1 611.9 350.7 612.9 351.1 614 351.4Z" fill="#002060"/></g></svg>