<svg width="96" height="96" xmlns="http://www.w3.org/2000/svg" xmlns:xlink="http://www.w3.org/1999/xlink" overflow="hidden"><defs><clipPath id="clip0"><rect x="335" y="299" width="96" height="96"/></clipPath></defs><g clip-path="url(#clip0)" transform="translate(-335 -299)"><path d="M385 329 381 329C378.8 329 377 327.2 377 325L377 317C377 314.8 378.8 313 381 313L385 313C387.2 313 389 314.8 389 317L389 325C389 327.2 387.2 329 385 329Z" fill="#FFFFFF"/><path d="M415 349 391 349 391 345 415 345 415 349ZM415 361 391 361 391 357 415 357 415 361ZM415 373 391 373 391 369 415 369 415 373ZM383 373 351 373 351 365C351 363.8 351.6 362.6 352.6 361.8 354.8 360.2 357.6 358.8 360.4 358 362.6 357.4 364.8 357 367 357 369.4 357 371.6 357.4 373.6 358 376.4 358.8 379.2 360 381.4 361.8 382.4 362.6 383 363.8 383 365L383 373ZM367 339C371.4 339 375 342.6 375 347 375 351.4 371.4 355 367 355 362.6 355 359 351.4 359 347 359 342.6 362.6 339 367 339ZM419 325 393 325C393 329.4 389.4 333 385 333L381 333C376.6 333 373 329.4 373 325L347 325C344.8 325 343 326.8 343 329L343 377C343 379.2 344.8 381 347 381L419 381C421.2 381 423 379.2 423 377L423 329C423 326.8 421.2 325 419 325Z" fill="#FFFFFF"/></g></svg>