<svg width="96" height="96" xmlns="http://www.w3.org/2000/svg" xmlns:xlink="http://www.w3.org/1999/xlink" overflow="hidden"><defs><clipPath id="clip0"><rect x="65" y="266" width="96" height="96"/></clipPath></defs><g clip-path="url(#clip0)" transform="translate(-65 -266)"><path d="M115 296 111 296C108.8 296 107 294.2 107 292L107 284C107 281.8 108.8 280 111 280L115 280C117.2 280 119 281.8 119 284L119 292C119 294.2 117.2 296 115 296Z" fill="#002060"/><path d="M145 316 121 316 121 312 145 312 145 316ZM145 328 121 328 121 324 145 324 145 328ZM145 340 121 340 121 336 145 336 145 340ZM113 340 81 340 81 332C81 330.8 81.6 329.6 82.6 328.8 84.8 327.2 87.6 325.8 90.4 325 92.6 324.4 94.8 324 97 324 99.4 324 101.6 324.4 103.6 325 106.4 325.8 109.2 327 111.4 328.8 112.4 329.6 113 330.8 113 332L113 340ZM97 306C101.4 306 105 309.6 105 314 105 318.4 101.4 322 97 322 92.6 322 89 318.4 89 314 89 309.6 92.6 306 97 306ZM149 292 123 292C123 296.4 119.4 300 115 300L111 300C106.6 300 103 296.4 103 292L77 292C74.8 292 73 293.8 73 296L73 344C73 346.2 74.8 348 77 348L149 348C151.2 348 153 346.2 153 344L153 296C153 293.8 151.2 292 149 292Z" fill="#002060"/></g></svg>