<svg width="96" height="96" xmlns="http://www.w3.org/2000/svg" xmlns:xlink="http://www.w3.org/1999/xlink" overflow="hidden"><defs><clipPath id="clip0"><rect x="335" y="72" width="96" height="96"/></clipPath></defs><g clip-path="url(#clip0)" transform="translate(-335 -72)"><path d="M421 94 421 143 345 143 345 94 339 94 339 150 374 150C374 151.7 375.3 153 377 153L389 153C390.7 153 392 151.7 392 150L427 150 427 94 421 94Z" fill="#FFFFFF"/><path d="M417 88 349 88 349 139 417 139 417 88ZM355 94 381 94 381 133 355 133 355 94ZM411 133 385 133 385 94 411 94 411 133Z" fill="#FFFFFF"/><path d="M391 104 405 104 405 107 391 107Z" fill="#FFFFFF"/><path d="M391 110 405 110 405 113 391 113Z" fill="#FFFFFF"/><path d="M391 116 400.7 116 400.7 119 391 119Z" fill="#FFFFFF"/></g></svg>