<svg width="96" height="96" xmlns="http://www.w3.org/2000/svg" xmlns:xlink="http://www.w3.org/1999/xlink" overflow="hidden"><defs><clipPath id="clip0"><rect x="65" y="39" width="96" height="96"/></clipPath></defs><g clip-path="url(#clip0)" transform="translate(-65 -39)"><path d="M151 61 151 110 75 110 75 61 69 61 69 117 104 117C104 118.7 105.3 120 107 120L119 120C120.7 120 122 118.7 122 117L157 117 157 61 151 61Z" fill="#002060"/><path d="M147 55 79 55 79 106 147 106 147 55ZM85 61 111 61 111 100 85 100 85 61ZM141 100 115 100 115 61 141 61 141 100Z" fill="#002060"/><path d="M121 71 135 71 135 74 121 74Z" fill="#002060"/><path d="M121 77 135 77 135 80 121 80Z" fill="#002060"/><path d="M121 83 130.7 83 130.7 86 121 86Z" fill="#002060"/></g></svg>