<svg width="96" height="96" xmlns="http://www.w3.org/2000/svg" xmlns:xlink="http://www.w3.org/1999/xlink" overflow="hidden"><defs><clipPath id="clip0"><rect x="592" y="312" width="96" height="96"/></clipPath></defs><g clip-path="url(#clip0)" transform="translate(-592 -312)"><path d="M674.65 374.63C672.17 373.33 662.46 370.06 654.3 366.89 652.3 366.1 650.51 364.64 650.16 362.5 649.75 360.02 651.47 358.27 653.3 356.67 658.3 352.25 663.24 351.07 665.24 349.07 669.213 345.233 669.323 338.902 665.486 334.93 661.649 330.957 655.318 330.847 651.346 334.684 651.262 334.765 651.18 334.847 651.1 334.93 650.1 335.93 648.9 337.93 647.26 340.02 641.59 347.13 640.17 347.89 636.15 347.89L636.15 347.89C633.796 347.83 631.735 346.297 631 344.06 628.71 337.64 626 329.76 624.88 327.67 622.687 323.732 617.718 322.317 613.78 324.51 609.842 326.703 608.427 331.672 610.62 335.61 612.776 338.786 615.234 341.747 617.96 344.45 620.005 346.508 620.912 349.436 620.39 352.29 619.525 356.575 615.574 359.522 611.22 359.13 610.22 359.05 609.46 359 609.02 359 605.618 359 602.86 361.758 602.86 365.16 602.86 368.562 605.618 371.32 609.02 371.32 609.96 371.32 612.4 371.11 615.44 370.73 617.937 370.393 620.364 371.712 621.44 373.99L621.44 373.99C622.44 376.12 621.44 378.22 620.44 380.36 619.781 381.751 619.016 383.088 618.15 384.36 616.951 386.675 617.855 389.523 620.17 390.722 622.339 391.845 625.006 391.129 626.32 389.07 627.08 387.75 627.79 383.68 630.59 378.07 630.942 377.2 631.6 376.489 632.44 376.07 634.154 375.345 636.132 376.146 636.857 377.86 636.913 377.994 636.961 378.13 637 378.27 637.32 379.35 637.62 380.27 637.82 380.74 638.891 382.866 641.482 383.722 643.608 382.651 645.448 381.724 646.375 379.624 645.82 377.64 645.621 377.192 645.387 376.761 645.12 376.35 644.447 375.336 644.664 373.974 645.62 373.22 646.565 372.592 647.823 372.722 648.62 373.53 655.78 379.69 664.35 387.65 667 389.06 670.926 391.272 675.903 389.883 678.115 385.956 680.327 382.03 678.937 377.054 675.011 374.841 674.879 374.767 674.746 374.697 674.61 374.63Z"/><path d="M643.84 332C643.84 334.209 642.049 336 639.84 336 637.631 336 635.84 334.209 635.84 332 635.84 329.791 637.631 328 639.84 328 642.049 328 643.84 329.791 643.84 332Z"/><path d="M611.84 347.21C611.84 350.087 609.507 352.42 606.63 352.42 603.753 352.42 601.42 350.087 601.42 347.21 601.42 344.333 603.753 342 606.63 342 609.507 342 611.84 344.333 611.84 347.21Z"/><path d="M610.84 380C610.84 381.105 609.945 382 608.84 382 607.735 382 606.84 381.105 606.84 380 606.84 378.895 607.735 378 608.84 378 609.945 378 610.84 378.895 610.84 380Z"/><path d="M636.84 392.5C636.84 393.328 636.168 394 635.34 394 634.512 394 633.84 393.328 633.84 392.5 633.84 391.672 634.512 391 635.34 391 636.168 391 636.84 391.672 636.84 392.5Z"/><path d="M655.84 394.5C655.84 396.433 654.273 398 652.34 398 650.407 398 648.84 396.433 648.84 394.5 648.84 392.567 650.407 391 652.34 391 654.273 391 655.84 392.567 655.84 394.5Z"/><path d="M669.84 363C669.84 364.105 668.945 365 667.84 365 666.735 365 665.84 364.105 665.84 363 665.84 361.895 666.735 361 667.84 361 668.945 361 669.84 361.895 669.84 363Z"/></g></svg>